<svg xmlns="http://www.w3.org/2000/svg" width="900" height="1180" viewBox="0 0 900 1180">
  <rect width="900" height="1180" fill="#ffffff"/>
  <rect x="42" y="36" width="816" height="1088" fill="#fff" stroke="#d1d5db" stroke-width="2"/>
  <text x="72" y="92" font-family="Arial, sans-serif" font-size="32" font-weight="700" fill="#2563EB">6월 평가원 국어</text>
  <text x="72" y="136" font-family="Arial, sans-serif" font-size="22" fill="#374151">평가원 지문 · 문항 21~24 · p.2</text>
  <line x1="72" y1="166" x2="828" y2="166" stroke="#111827" stroke-width="2"/>
  <rect x="72" y="220" width="678" height="14" rx="3" fill="#111827" opacity="0.42"/><rect x="72" y="262" width="715" height="14" rx="3" fill="#111827" opacity="0.24"/><rect x="72" y="304" width="752" height="14" rx="3" fill="#111827" opacity="0.24"/><rect x="72" y="346" width="659" height="14" rx="3" fill="#111827" opacity="0.24"/><rect x="72" y="388" width="696" height="14" rx="3" fill="#111827" opacity="0.24"/><rect x="72" y="430" width="733" height="14" rx="3" fill="#111827" opacity="0.42"/><rect x="72" y="472" width="640" height="14" rx="3" fill="#111827" opacity="0.24"/><rect x="72" y="514" width="677" height="14" rx="3" fill="#111827" opacity="0.24"/><rect x="72" y="556" width="714" height="14" rx="3" fill="#111827" opacity="0.24"/><rect x="72" y="598" width="751" height="14" rx="3" fill="#111827" opacity="0.24"/><rect x="72" y="640" width="658" height="14" rx="3" fill="#111827" opacity="0.42"/><rect x="72" y="682" width="695" height="14" rx="3" fill="#111827" opacity="0.24"/><rect x="72" y="724" width="732" height="14" rx="3" fill="#111827" opacity="0.24"/><rect x="72" y="766" width="769" height="14" rx="3" fill="#111827" opacity="0.24"/><rect x="72" y="808" width="676" height="14" rx="3" fill="#111827" opacity="0.24"/><rect x="72" y="850" width="713" height="14" rx="3" fill="#111827" opacity="0.42"/>
  <rect x="72" y="850" width="756" height="112" rx="10" fill="#f9fafb" stroke="#d1d5db"/>
  <text x="98" y="897" font-family="Arial, sans-serif" font-size="24" font-weight="700" fill="#111827">보기 / 선지 판단 기준</text>
  <text x="98" y="934" font-family="Arial, sans-serif" font-size="19" fill="#4b5563">핵심 개념, 조건 변화, 판단 근거가 표시되는 샘플 PDF 캡처입니다.</text>
  <text x="72" y="1080" font-family="Arial, sans-serif" font-size="15" fill="#9ca3af">mock image 5920107d</text>
</svg>